<?xml version="1.0" standalone="no"?>
<!DOCTYPE svg PUBLIC "-//W3C//DTD SVG 20010904//EN"
 "http://www.w3.org/TR/2001/REC-SVG-20010904/DTD/svg10.dtd">
<svg version="1.0" xmlns="http://www.w3.org/2000/svg"
 width="200.000000pt" height="200.000000pt" viewBox="0 0 200.000000 200.000000"
 preserveAspectRatio="xMidYMid meet">

<g transform="translate(0.000000,200.000000) scale(0.100000,-0.100000)"
fill="#000000" stroke="none">
<path d="M0 1000 l0 -1000 1000 0 1000 0 0 1000 0 1000 -1000 0 -1000 0 0
-1000z m902 513 c38 -34 11 -103 -40 -103 -54 0 -81 62 -45 102 20 22 61 23
85 1z m280 0 c39 -35 11 -103 -43 -103 -35 0 -59 24 -59 57 0 55 62 83 102 46z
m-350 -178 c-3 -21 0 -35 7 -35 6 0 11 16 11 35 0 19 4 35 8 35 4 0 6 -16 4
-35 -3 -21 0 -35 7 -35 6 0 11 16 11 35 0 19 4 35 8 35 4 0 6 -15 4 -33 -4
-32 -2 -34 28 -34 30 0 32 2 28 34 -2 18 0 33 4 33 4 0 8 -16 8 -35 0 -19 5
-35 11 -35 7 0 10 14 7 35 -2 19 0 35 4 35 4 0 8 -16 8 -35 0 -19 5 -35 11
-35 7 0 10 14 7 35 -2 21 0 35 7 35 7 0 9 -14 7 -35 -3 -21 0 -35 7 -35 6 0
11 16 11 35 0 19 4 35 8 35 4 0 6 -16 4 -35 -3 -21 0 -35 7 -35 6 0 11 16 11
35 0 19 4 35 8 35 4 0 6 -15 4 -33 -4 -32 -2 -34 28 -35 31 -1 32 1 28 34 -2
19 0 34 4 34 4 0 8 -16 8 -35 0 -19 5 -35 11 -35 7 0 10 13 7 35 -3 27 -1 32
9 23 7 -6 13 -18 13 -27 0 -37 -20 -41 -190 -41 -116 0 -170 4 -178 12 -13 13
-16 50 -5 61 14 15 19 6 15 -28z m286 -396 c3 -28 -16 -43 -43 -33 -15 6 -21
45 -8 58 16 16 48 1 51 -25z m72 -174 l0 -85 -190 0 -190 0 0 85 0 85 190 0
190 0 0 -85z"/>
<path d="M827 1504 c-15 -15 -7 -63 13 -74 33 -17 62 4 58 43 -3 27 -7 32 -33
35 -17 2 -34 0 -38 -4z m33 -24 c0 -5 -7 -10 -15 -10 -8 0 -15 5 -15 10 0 6 7
10 15 10 8 0 15 -4 15 -10z"/>
<path d="M1101 1491 c-21 -39 15 -76 57 -60 19 7 23 15 20 41 -3 29 -7 33 -35
36 -23 2 -34 -2 -42 -17z m34 -11 c3 -5 -1 -10 -9 -10 -9 0 -16 5 -16 10 0 6
4 10 9 10 6 0 13 -4 16 -10z"/>
<path d="M857 813 c-4 -3 -7 -28 -7 -55 l0 -48 145 0 145 0 0 55 0 55 -138 0
c-76 0 -142 -3 -145 -7z"/>
</g>
</svg>
